# xmcd
#
# Track frame offsets:
#	150
#	11869
#	24100
#	38783
#	49740
#	63689
#	75241
#	85581
#	95674
#	107052
#	117744
#	145886
#	157982
#	171349
#	179833
#	191159
#	200921
#	211752
#	222193
#	234874
#
# Disc length: 3290 seconds
#
# Revision: 0
# Processed by: cddbd v1.5.2PL0 Copyright (c) Steve Scherf et al.
# Submitted via: EZCDAudioConverter 2.8.1.1
#
DISCID=1a0cd814
DTITLE=Big Box of Chuck Berry ‘n’ Bo Diddley
DYEAR=2011
DGENRE=
TTITLE0=BO DIDDLAY - Little Girl
TTITLE1=BO DIDDLAY - Run Diddley Daddy
TTITLE2=BO DIDDLAY - Down Home Special
TTITLE3=BO DIDDLAY - No More Lovin'
TTITLE4=CHUCK BERRY - Wee Wee Hours
TTITLE5=BO DIDDLAY - Prisoner Of Love
TTITLE6=CHUCK BERRY - Brown Eyed Handsome Man
TTITLE7=BO DIDDLAY -  Pearl
TTITLE8=BO DIDDLAY - The Great Grandfather
TTITLE9=BO DIDDLAY - Bring It To Jermoe
TTITLE10=BO DIDDLAY - Whillie Fell In Love
TTITLE11=BO DIDDLAY - I’m High Again
TTITLE12=BO DIDDLAY - Better Watch Yoursel
TTITLE13=CHUCK BERRY -  I’m Talking About You
TTITLE14=BO DIDDLAY - To Each His Own
TTITLE15=BO DIDDLAY -  Wyatt Earp
TTITLE16=BO DIDDLAY -  Mona(I Need You Baby)
TTITLE17=BO DIDDLAY - Hey Little Schoolgirl
TTITLE18=CHUCK BERRY - Joe Joe Gunn
TTITLE19=CHUCK BERRY - Around And Around
EXTD=
EXTT0=
EXTT1=
EXTT2=
EXTT3=
EXTT4=
EXTT5=
EXTT6=
EXTT7=
EXTT8=
EXTT9=
EXTT10=
EXTT11=
EXTT12=
EXTT13=
EXTT14=
EXTT15=
EXTT16=
EXTT17=
EXTT18=
EXTT19=
PLAYORDER=
